<?xml version="1.0" standalone="no"?>
<!DOCTYPE svg PUBLIC "-//W3C//DTD SVG 20010904//EN"
 "http://www.w3.org/TR/2001/REC-SVG-20010904/DTD/svg10.dtd">
<svg version="1.0" xmlns="http://www.w3.org/2000/svg"
 width="1024.000000pt" height="1024.000000pt" viewBox="0 0 1024.000000 1024.000000"
 preserveAspectRatio="xMidYMid meet">
<metadata>
Created by potrace 1.14, written by Peter Selinger 2001-2017
</metadata>
<g transform="translate(0.000000,1024.000000) scale(0.100000,-0.100000)"
fill="#000000" stroke="none">
<path d="M9965 10150 c-3 -5 -1 -10 4 -10 6 0 11 5 11 10 0 6 -2 10 -4 10 -3
0 -8 -4 -11 -10z"/>
<path d="M3604 9452 c-265 -67 -484 -243 -607 -487 -77 -154 -102 -408 -58
-585 52 -206 196 -418 355 -524 65 -43 204 -116 222 -116 7 0 19 -6 26 -12 7
-7 24 -14 38 -15 80 -6 131 -16 119 -24 -14 -8 164 -5 191 4 8 2 47 10 87 16
76 11 217 67 310 123 69 40 182 145 233 214 54 72 116 199 147 301 23 78 26
104 26 233 0 171 -18 252 -87 395 -105 218 -317 398 -546 465 -107 31 -354 37
-456 12z m411 -132 c125 -40 258 -117 310 -179 17 -21 20 -28 8 -18 -14 13
-29 17 -45 12 -16 -4 -19 -3 -9 3 16 12 4 19 -29 16 -14 -1 -55 16 -92 36
-112 64 -212 90 -346 90 -130 0 -200 -15 -310 -65 -125 -58 -232 -156 -307
-280 -18 -30 -36 -51 -40 -47 -5 4 -5 2 -2 -4 4 -7 -2 -32 -13 -55 -11 -24
-20 -38 -20 -31 0 7 -4 10 -10 7 -6 -3 -7 1 -4 10 5 11 2 14 -11 9 -22 -9 -16
15 31 112 89 183 279 336 489 395 98 27 298 21 400 -11z m-90 -175 c193 -41
369 -194 426 -373 13 -39 24 -105 26 -157 20 -391 -335 -674 -721 -575 -132
34 -238 108 -320 224 -67 95 -98 183 -104 296 -8 171 44 305 168 431 141 143
323 196 525 154z m390 -45 c2 -19 1 -19 -19 -3 -12 10 -23 20 -26 22 -3 2 6 0
19 -4 18 -6 22 -4 16 6 -5 8 -4 11 0 6 5 -4 9 -16 10 -27z m-1231 -305 c-4 -8
-8 -15 -10 -15 -2 0 -4 7 -4 15 0 8 4 15 10 15 5 0 7 -7 4 -15z"/>
<path d="M3716 9045 c-54 -28 -95 -93 -96 -152 -1 -106 78 -185 182 -185 61 1
112 26 152 76 28 34 31 45 31 105 0 58 -4 73 -27 103 -15 19 -42 43 -61 52
-44 20 -142 21 -181 1z"/>
<path d="M4045 8792 c-81 -38 -134 -147 -113 -231 22 -87 125 -161 205 -148
89 15 147 89 147 187 1 144 -125 245 -239 192z"/>
<path d="M3418 8770 c-42 -22 -72 -66 -89 -130 -17 -66 8 -148 58 -189 63 -52
161 -52 227 0 74 58 88 184 29 256 -66 83 -145 105 -225 63z"/>
<path d="M3735 8473 c-74 -39 -114 -105 -115 -189 0 -65 29 -111 90 -141 130
-66 279 14 280 150 0 135 -145 238 -255 180z"/>
<path d="M788 9377 c-83 -63 -78 -11 -78 -815 0 -681 1 -714 19 -750 23 -45
56 -77 94 -91 35 -14 1495 -15 1529 -2 34 13 73 51 94 91 18 33 19 74 22 720
3 730 1 766 -45 820 -53 63 -10 60 -837 60 l-754 0 -44 -33z m211 -112 c36
-18 64 -76 56 -115 -10 -44 -42 -78 -84 -91 -50 -15 -103 8 -125 56 -19 39
-20 52 -5 94 21 60 98 88 158 56z m521 -30 l0 -45 60 -1 c33 -1 66 -2 73 -3 8
-1 11 13 9 47 l-4 47 167 0 c155 0 167 -1 160 -17 -4 -10 -9 -41 -12 -69 -7
-68 17 -140 68 -197 57 -65 114 -90 211 -91 l78 -1 0 -117 0 -118 -55 0 -55 0
0 -40 0 -40 56 0 c54 0 55 0 52 -27 -3 -26 -7 -28 -55 -31 l-53 -3 0 -45 0
-44 55 0 55 0 0 -112 0 -113 -54 3 c-89 6 -160 -20 -221 -81 -78 -79 -94 -136
-73 -272 3 -19 -3 -20 -157 -20 l-160 0 2 43 2 42 -74 0 -75 0 0 -45 0 -45
-170 0 -170 0 7 28 c14 48 7 145 -12 182 -57 111 -119 151 -245 159 l-85 6 -3
113 -3 112 56 0 55 0 0 40 0 40 -50 0 -50 0 0 35 0 35 50 0 50 0 0 45 0 45
-55 0 -56 0 3 112 3 111 77 2 c98 3 168 35 216 99 59 79 73 158 46 254 l-6 22
171 0 171 0 0 -45z m768 29 c71 -49 66 -161 -9 -200 -87 -45 -190 47 -159 142
21 64 114 96 168 58z m-1291 -1214 c66 -40 77 -110 27 -169 -42 -50 -105 -50
-161 2 -47 43 -36 133 21 168 40 24 73 24 113 -1z m1309 -14 c26 -26 34 -42
34 -70 0 -79 -63 -135 -136 -121 -40 7 -94 65 -94 101 0 68 55 123 124 124 30
0 45 -7 72 -34z"/>
<path d="M1500 9103 c-51 -8 -127 -36 -180 -66 -73 -41 -178 -149 -216 -222
-145 -275 -35 -604 246 -742 216 -107 444 -68 617 103 175 174 214 422 101
638 -47 88 -169 209 -250 245 -96 44 -219 61 -318 44z m169 -104 c176 -40 331
-207 350 -375 8 -72 4 -104 -12 -98 -7 2 -22 -14 -35 -36 -12 -22 -27 -40 -33
-40 -5 0 0 13 12 29 33 44 36 110 9 166 -56 117 -194 114 -258 -5 -41 -77 -18
-150 64 -198 31 -18 49 -22 83 -17 24 3 50 10 57 16 17 14 19 -2 2 -19 -7 -7
-8 -12 -4 -12 13 0 -94 -88 -128 -104 l-31 -15 -7 42 c-15 82 -70 129 -152
131 -53 0 -59 -2 -98 -41 -36 -36 -42 -48 -46 -96 -3 -39 1 -65 12 -88 9 -17
16 -33 16 -35 0 -8 -78 0 -93 11 -10 7 -28 10 -39 7 -16 -4 -19 -2 -13 8 6 9
4 11 -4 5 -28 -17 -116 100 -151 201 -24 67 -28 169 -10 235 60 223 299 377
509 328z"/>
<path d="M1545 8959 c-64 -20 -106 -77 -107 -144 -1 -52 19 -87 72 -122 89
-61 225 17 225 129 0 95 -97 165 -190 137z"/>
<path d="M1245 8697 c-65 -65 -68 -168 -7 -224 60 -56 134 -59 191 -8 66 60
75 144 21 213 -31 39 -58 51 -118 52 -48 0 -58 -4 -87 -33z"/>
<path d="M1536 8608 c-22 -31 -20 -75 3 -88 52 -27 111 0 111 52 0 55 -83 81
-114 36z"/>
<path d="M7647 9399 c-51 -12 -104 -54 -128 -101 -19 -37 -19 -60 -17 -725 3
-649 4 -690 22 -726 10 -20 33 -47 50 -60 l31 -22 795 -3 c437 -2 809 0 827 3
43 8 92 50 114 100 17 37 19 82 19 711 0 592 -2 676 -16 710 -20 49 -49 81
-96 105 -36 18 -69 19 -800 18 -420 -1 -780 -5 -801 -10z m101 -125 c19 -6 22
-13 22 -60 l0 -54 -44 0 c-64 0 -76 7 -76 44 0 36 7 48 35 64 23 13 32 14 63
6z m1162 -58 c0 -34 -5 -56 -12 -59 -9 -3 -686 -1 -940 3 -5 0 -8 25 -8 55 l0
55 480 0 480 0 0 -54z m291 27 c5 -15 9 -38 7 -52 -3 -24 -6 -26 -58 -26 l-55
0 -3 53 -3 52 51 0 c46 0 51 -3 61 -27z m27 -665 l4 -478 -796 0 -796 0 -2
438 c-1 240 -2 453 -2 472 -1 19 0 38 2 43 2 4 359 6 795 5 l791 -3 4 -477z
m-1458 -637 l0 -61 -48 0 c-26 0 -53 5 -60 12 -12 12 -17 90 -7 100 3 2 30 6
60 7 l55 2 0 -60z m1148 30 c2 -13 1 -39 -3 -57 l-6 -34 -479 0 -478 0 -4 55
c-2 42 0 55 12 59 8 2 227 3 485 2 l470 -1 3 -24z m292 -20 c0 -65 -6 -71 -66
-71 l-54 0 0 48 c0 27 3 52 7 55 3 4 30 7 60 7 l53 0 0 -39z"/>
<path d="M7721 8957 c-8 -11 -15 -444 -11 -729 0 -10 14 -25 31 -33 25 -13 60
-16 194 -13 110 2 168 7 176 15 7 7 11 38 10 79 l-2 67 53 -48 c29 -26 75 -59
103 -73 46 -25 60 -27 165 -27 133 0 171 14 253 93 l47 46 0 -57 c0 -94 6 -97
210 -97 157 0 172 2 190 20 19 19 20 33 20 378 0 335 -1 360 -18 375 -16 15
-45 17 -195 17 -176 0 -177 0 -193 -24 -8 -14 -15 -40 -14 -58 1 -18 2 -43 1
-56 -1 -23 -2 -23 -27 7 -60 71 -233 122 -346 101 -70 -14 -150 -53 -199 -100
-21 -20 -39 -36 -39 -36 -1 1 -2 34 -3 74 -2 52 -7 76 -17 82 -25 16 -375 13
-389 -3z m297 -75 c9 -7 12 -75 10 -308 l-3 -299 -114 -3 -113 -3 3 303 c2
167 8 306 13 309 13 10 189 10 204 1z m1042 -307 l0 -305 -110 0 -111 0 1 305
2 305 109 0 109 0 0 -305z m-572 284 c73 -18 70 -26 -15 -33 -129 -11 -226
-73 -279 -177 -30 -59 -44 -69 -44 -31 0 97 81 195 193 233 62 22 83 23 145 8z"/>
<path d="M5243 9328 c-50 -11 -107 -68 -122 -125 -7 -25 -11 -251 -11 -655 0
-580 1 -619 19 -660 23 -53 79 -105 123 -113 18 -3 423 -4 899 -3 l866 3 37
29 c21 16 47 48 57 72 19 41 19 72 17 692 l-3 648 -27 42 c-55 83 15 77 -953
78 -501 1 -877 -2 -902 -8z m607 -171 c0 -35 -3 -66 -6 -70 -3 -3 -27 8 -52
23 -92 57 -121 70 -177 76 l-57 7 -66 -70 c-68 -71 -146 -192 -175 -273 -67
-184 -63 -425 10 -610 59 -149 208 -330 271 -330 43 0 102 23 175 69 35 23 67
41 71 41 3 0 6 -29 6 -65 l0 -65 -132 -1 c-73 0 -202 0 -285 0 -211 0 -213 2
-213 169 l0 92 51 0 c44 0 51 2 46 18 -3 9 -19 55 -36 102 -33 93 -50 191 -51
286 0 103 41 282 95 407 6 15 1 17 -49 17 l-56 0 0 100 c0 149 -23 140 337
140 l293 0 0 -63z m623 26 l18 -36 -43 -38 c-24 -21 -46 -38 -51 -39 -4 0 -26
13 -48 30 -91 65 -244 91 -341 56 -34 -12 -36 -12 -40 8 -10 58 -18 56 245 56
l242 0 18 -37z m528 8 c16 -19 19 -40 19 -117 l0 -94 -30 0 c-16 0 -30 -4 -30
-9 0 -5 13 -42 29 -83 33 -83 47 -153 56 -283 10 -141 -14 -275 -80 -437 -6
-15 -1 -18 29 -18 l36 0 0 -96 c0 -157 -8 -163 -197 -164 -79 0 -143 2 -143 4
0 2 43 47 95 100 80 82 102 112 139 189 59 121 76 189 83 324 13 259 -58 451
-233 631 l-82 83 145 -3 c138 -3 146 -4 164 -27z m-259 -155 c57 -56 85 -94
116 -158 92 -186 96 -433 10 -615 -45 -97 -184 -263 -220 -263 -5 0 -39 25
-74 56 l-63 56 27 34 c17 22 36 34 51 34 105 0 223 152 239 307 14 137 -8 241
-71 335 -47 70 -102 108 -158 108 -26 0 -43 8 -65 31 l-29 30 65 59 c36 33 72
59 81 60 9 0 50 -33 91 -74z m-1063 7 l59 -47 -31 -38 c-17 -21 -38 -38 -47
-38 -31 0 -106 -57 -138 -105 -57 -86 -75 -149 -76 -260 0 -113 19 -180 74
-260 37 -54 103 -105 136 -105 19 0 85 -63 83 -80 0 -3 -31 -28 -68 -57 l-69
-52 -54 57 c-121 127 -187 286 -195 472 -6 143 10 219 73 347 48 98 156 228
180 219 8 -3 40 -27 73 -53z m542 9 c30 -15 59 -38 64 -50 6 -13 35 -37 65
-55 67 -38 152 -123 182 -180 108 -213 34 -463 -177 -596 -43 -27 -65 -48 -67
-63 -4 -33 -94 -67 -173 -67 -81 -1 -144 27 -138 60 3 21 -3 27 -42 43 -58 23
-160 124 -199 195 -59 109 -70 215 -36 340 36 127 100 213 207 273 34 19 53
37 57 54 5 18 22 32 59 50 71 33 130 32 198 -4z m246 -1124 l-21 -38 -238 0
-238 0 0 34 0 35 53 -16 c69 -20 172 -13 264 19 47 17 73 22 76 15 2 -7 14 -3
31 10 l27 22 33 -22 34 -22 -21 -37z"/>
<path d="M6016 8914 c-94 -30 -172 -98 -224 -197 -25 -48 -27 -61 -27 -162 0
-100 2 -115 28 -167 36 -73 100 -137 174 -174 52 -26 68 -29 158 -29 93 0 105
2 167 33 43 21 84 51 116 87 104 114 125 308 48 439 -34 59 -107 123 -174 154
-72 33 -192 40 -266 16z m187 -245 c52 -34 73 -79 63 -134 -25 -129 -204 -156
-261 -38 -34 70 -12 141 59 184 44 27 85 24 139 -12z"/>
<path d="M6055 8629 c-45 -40 -48 -90 -9 -132 51 -55 115 -57 159 -5 84 100
-51 224 -150 137z m85 -55 c0 -8 -4 -12 -10 -9 -5 3 -10 10 -10 16 0 5 5 9 10
9 6 0 10 -7 10 -16z"/>
<path d="M3970 7690 c-8 -5 -10 -10 -5 -10 6 0 17 5 25 10 8 5 11 10 5 10 -5
0 -17 -5 -25 -10z"/>
<path d="M3640 7680 c0 -5 5 -10 11 -10 5 0 7 5 4 10 -3 6 -8 10 -11 10 -2 0
-4 -4 -4 -10z"/>
<path d="M3270 7400 c-165 -24 -302 -120 -384 -270 -74 -136 -68 4 -73 -1947
-5 -1796 -3 -1923 33 -2028 45 -130 141 -243 256 -301 98 -49 165 -64 303 -66
99 -1 109 -3 60 -8 -90 -10 333 -14 1635 -14 766 -1 1168 2 1173 9 4 6 10 5
15 -3 9 -14 75 -5 66 9 -3 5 0 9 5 9 6 0 11 -5 11 -12 0 -9 3 -9 12 0 7 7 32
11 57 11 26 -1 36 -4 23 -6 -28 -6 -19 -23 13 -23 17 0 23 4 19 14 -4 11 24
15 158 18 170 5 201 11 314 64 77 36 168 134 214 229 21 44 43 104 49 133 8
37 11 601 11 1881 0 1788 0 1829 -20 1905 -46 180 -168 316 -341 378 l-64 23
-1745 1 c-960 1 -1770 -2 -1800 -6z m874 -440 c55 -69 162 -200 238 -292 l139
-168 -211 0 -211 0 -27 32 c-15 17 -123 151 -240 297 l-214 266 199 5 c124 3
203 1 212 -5 8 -5 59 -66 115 -135z m753 116 c58 -74 356 -442 407 -501 l60
-70 -205 -3 -204 -3 -40 44 c-36 39 -400 490 -434 538 -13 19 -9 19 192 19
204 0 205 0 224 -24z m915 -109 c59 -73 143 -177 187 -232 43 -55 104 -129
135 -165 31 -36 56 -67 56 -70 0 -11 -403 0 -417 12 -8 6 -76 89 -151 182 -75
94 -170 213 -212 264 -41 52 -83 104 -93 118 l-19 24 204 0 203 -1 107 -132z
m790 71 c30 -35 108 -130 173 -213 65 -82 150 -187 188 -233 38 -46 66 -86 63
-90 -4 -3 -94 -8 -200 -10 l-193 -4 -137 168 c-74 93 -177 219 -227 279 -49
61 -99 122 -110 138 l-20 27 204 0 205 0 54 -62z m-3204 -84 c26 -18 52 -65
52 -94 0 -12 -13 -35 -29 -51 -41 -40 -97 -41 -140 0 -33 31 -37 50 -20 100
19 54 91 78 137 45z m3017 -615 c55 -5 129 -11 165 -13 36 -3 72 -7 80 -10 8
-2 33 -10 55 -17 22 -6 42 -15 45 -18 3 -3 23 -16 45 -28 40 -22 48 -40 58
-123 1 -8 6 -18 10 -21 11 -8 18 -121 7 -114 -5 3 -3 -10 6 -30 8 -20 12 -40
9 -45 -3 -5 -1 -11 5 -15 16 -10 1 -25 -18 -18 -16 6 -16 6 1 -11 9 -9 17 -20
17 -23 0 -4 -8 -15 -17 -26 -10 -11 -12 -17 -5 -13 7 4 12 1 12 -8 0 -8 6 -16
13 -19 6 -2 -231 -7 -528 -11 -577 -7 -3175 -7 -3175 0 0 3 9 15 21 27 l20 22
-23 6 c-17 4 -22 12 -21 28 2 12 -1 39 -6 61 -6 25 -5 42 2 49 6 6 7 11 3 11
-5 0 -3 7 4 15 11 13 10 14 -4 9 -11 -4 -16 -1 -16 10 0 9 4 16 9 16 13 0 9
53 -4 63 -6 4 -5 10 4 16 8 5 14 27 15 50 1 25 6 41 13 41 7 0 10 7 6 15 -3
10 -1 15 7 13 6 -2 17 6 23 17 7 11 16 23 21 26 5 4 5 12 1 19 -6 9 -4 11 5 5
7 -4 16 -2 21 6 7 12 9 11 9 -1 0 -11 2 -12 8 -2 5 7 30 13 60 13 51 2 74 17
30 21 -13 1 4 4 37 8 93 10 2857 9 2970 -1z m-3016 -1386 c1 -362 4 -691 7
-730 4 -43 3 -73 -2 -73 -18 0 -136 253 -179 384 -74 219 -96 409 -76 626 15
152 55 323 98 418 15 32 16 32 83 32 l69 0 0 -657z m3111 -184 l0 -841 -60
-71 c-200 -242 -551 -480 -840 -572 -244 -77 -324 -90 -595 -89 -254 0 -290 5
-519 80 -337 111 -640 307 -861 560 l-75 86 0 844 0 844 1475 0 1475 0 0 -841z
m287 828 c34 1 68 -94 113 -312 17 -80 23 -299 11 -395 -30 -240 -119 -520
-225 -700 l-26 -45 0 726 c1 400 4 730 8 734 4 3 27 3 52 -1 25 -4 55 -7 67
-7z m-3495 -2099 l3 -223 203 -3 202 -2 0 -81 0 -80 -270 1 c-148 1 -279 4
-290 7 -19 5 -20 13 -20 304 l0 299 85 0 85 0 2 -222z m3628 -63 c0 -272 -1
-286 -20 -305 -20 -20 -31 -20 -288 -18 l-267 3 -3 78 -3 77 201 0 200 0 0
225 0 225 90 0 90 0 0 -285z m-3207 -652 c-7 -2 -21 -2 -30 0 -10 3 -4 5 12 5
17 0 24 -2 18 -5z m2527 -2 c0 -4 -11 -6 -25 -3 -14 2 -25 6 -25 8 0 2 11 4
25 4 14 0 25 -4 25 -9z m75 -1 c-3 -5 -10 -10 -16 -10 -5 0 -9 5 -9 10 0 6 7
10 16 10 8 0 12 -4 9 -10z"/>
<path d="M4153 6125 c-32 -32 -35 -39 -30 -78 4 -30 15 -50 37 -70 l31 -28
289 3 288 3 26 24 c32 30 43 81 26 122 -25 59 -27 59 -343 59 l-289 0 -35 -35z"/>
<path d="M5269 6131 c-47 -48 -37 -130 21 -164 24 -15 64 -17 303 -17 260 0
276 1 300 20 38 30 52 80 34 123 -28 67 -30 67 -345 67 l-284 0 -29 -29z"/>
<path d="M3290 5589 c0 -5 5 -7 10 -4 6 3 10 8 10 11 0 2 -4 4 -10 4 -5 0 -10
-5 -10 -11z"/>
<path d="M3934 5359 c-27 -14 -54 -60 -54 -94 0 -16 12 -38 29 -56 29 -28 32
-29 129 -29 100 0 100 0 126 31 41 48 29 117 -25 145 -32 16 -173 18 -205 3z"/>
<path d="M4501 5356 c-56 -31 -67 -102 -22 -147 l29 -29 812 0 811 0 24 25
c34 33 34 93 1 132 l-24 28 -804 2 c-654 2 -807 0 -827 -11z"/>
<path d="M3940 5019 c-89 -35 -75 -153 22 -179 28 -8 354 -11 1085 -9 1163 2
1090 -2 1126 71 16 33 17 40 3 66 -32 61 49 57 -1130 59 -699 1 -1090 -1
-1106 -8z"/>
<path d="M3915 4667 c-17 -14 -28 -36 -32 -63 -5 -36 -1 -46 25 -75 28 -32 34
-34 106 -37 93 -5 121 1 152 35 35 38 33 95 -5 134 -28 28 -33 29 -125 29 -84
0 -98 -3 -121 -23z"/>
<path d="M4479 4661 c-42 -42 -40 -92 5 -137 l34 -34 797 0 c783 0 797 0 825
20 39 27 56 81 40 121 -26 62 22 59 -863 59 l-809 0 -29 -29z"/>
<path d="M3989 4341 c-34 -4 -65 -13 -77 -25 -27 -24 -37 -70 -23 -105 19 -45
58 -61 151 -61 114 0 149 22 150 93 0 51 -15 76 -55 93 -36 15 -52 15 -146 5z"/>
<path d="M4530 4340 c-42 -10 -80 -51 -80 -87 0 -34 28 -79 57 -92 15 -7 120
-11 289 -11 l265 0 -3 98 -3 97 -245 2 c-135 0 -261 -3 -280 -7z"/>
<path d="M5737 4343 c-4 -3 -7 -48 -7 -100 l0 -93 194 0 194 0 31 26 c26 21
31 33 31 68 0 53 -21 83 -68 96 -40 11 -365 14 -375 3z"/>
<path d="M3933 3934 c-65 -32 -67 -108 -4 -151 l34 -23 814 0 c902 0 860 -3
889 65 19 46 3 88 -41 109 -29 14 -125 16 -847 16 -716 0 -817 -2 -845 -16z"/>
<path d="M6800 5576 c0 -2 7 -9 15 -16 13 -11 14 -10 9 4 -5 14 -24 23 -24 12z"/>
<path d="M755 7338 c-11 -6 -25 -19 -32 -27 -17 -22 -16 -90 1 -123 14 -26 13
-30 -8 -55 -12 -16 -31 -42 -41 -60 l-18 -31 70 -80 c39 -44 79 -94 89 -111
l18 -31 788 0 c657 0 788 2 788 14 0 7 -16 34 -35 59 -19 25 -35 49 -35 52 0
3 29 44 65 91 63 83 65 87 65 146 0 72 -22 123 -64 149 -30 18 -66 19 -831 19
-583 -1 -805 -4 -820 -12z m344 -130 l51 -41 -56 -52 -56 -52 -104 -5 c-57 -3
-104 -3 -104 -2 0 2 25 28 56 58 l56 54 -36 32 c-20 18 -36 36 -36 41 0 5 40
9 89 9 l88 0 52 -42z m395 5 c19 -15 37 -34 40 -41 3 -7 -16 -34 -42 -61 l-47
-48 -120 -6 -120 -7 30 23 c17 12 48 39 70 59 l40 38 -37 31 c-21 17 -38 35
-38 39 0 5 43 7 95 5 88 -3 98 -6 129 -32z m426 -9 l40 -39 -58 -51 -57 -51
-115 -5 -114 -6 52 45 c75 64 80 78 42 109 -16 14 -30 30 -30 36 0 7 36 9 100
6 l100 -4 40 -40z m398 3 c17 -17 32 -36 32 -42 0 -6 -21 -32 -47 -57 l-48
-46 -112 -4 c-62 -2 -113 -2 -113 -1 0 1 25 25 55 54 30 28 55 56 55 61 0 5
-13 21 -30 35 -49 41 -40 46 73 38 96 -7 104 -9 135 -38z"/>
<path d="M7830 7173 c-99 -52 -147 -142 -137 -259 6 -77 45 -154 101 -197 55
-41 65 -51 45 -44 -9 3 -16 0 -16 -8 0 -7 6 -11 14 -8 7 3 13 0 13 -6 0 -6 -4
-11 -10 -11 -5 0 -10 -11 -10 -24 0 -14 -5 -28 -11 -32 -6 -3 -9 -17 -6 -31 3
-15 -1 -27 -9 -30 -16 -6 -19 -33 -4 -33 6 0 10 -5 10 -11 0 -5 -3 -8 -8 -5
-4 2 -6 -19 -4 -47 1 -29 3 -62 3 -74 1 -13 5 -23 11 -23 5 0 6 -4 3 -10 -3
-5 -1 -10 5 -10 7 0 8 -6 2 -17 -5 -10 -8 -23 -5 -29 2 -6 -14 -29 -35 -51
-75 -78 -108 -195 -83 -289 16 -59 76 -131 135 -162 41 -21 65 -26 121 -26 85
1 128 18 192 76 36 33 55 44 78 43 47 -2 89 -16 103 -34 11 -13 34 -16 135
-16 102 0 134 4 192 24 l71 23 66 -50 c46 -35 82 -53 119 -61 116 -25 233 32
292 143 16 31 21 58 21 111 0 85 -22 139 -87 213 -26 30 -45 59 -43 69 2 10 7
42 11 72 6 44 5 52 -6 45 -12 -6 -12 -5 0 9 9 12 12 31 7 63 -3 29 -2 43 4 39
6 -3 10 1 10 10 0 9 -4 13 -10 10 -5 -3 -10 -1 -10 4 0 6 5 11 10 11 6 0 10 5
10 11 0 6 -6 9 -14 6 -10 -4 -15 4 -18 27 -3 28 -1 32 14 28 17 -4 17 -2 1 29
-20 43 -27 50 -20 22 3 -13 2 -23 -3 -23 -4 0 -10 10 -13 22 -4 15 -1 25 11
32 9 5 40 33 69 62 174 176 48 459 -197 442 -82 -6 -137 -34 -185 -93 -35 -43
-38 -44 -63 -31 -39 20 -129 43 -192 51 -64 8 -185 -13 -269 -47 -52 -21 -54
-21 -64 -2 -17 31 -72 79 -114 99 -22 11 -67 21 -108 23 -62 3 -76 0 -125 -25z
m156 -138 c69 -29 79 -130 15 -168 -16 -9 -47 -17 -69 -17 -33 0 -45 6 -67 32
-22 26 -26 39 -22 71 6 41 29 74 62 88 29 11 42 11 81 -6z m1054 -14 c54 -39
45 -138 -16 -161 -99 -38 -185 42 -139 130 30 57 99 72 155 31z m-477 -96 c87
-23 155 -61 224 -128 198 -190 198 -484 0 -674 -97 -93 -195 -133 -328 -133
-297 0 -536 296 -464 573 23 90 55 146 122 217 123 131 291 185 446 145z
m-743 -510 c0 -14 -4 -25 -9 -25 -4 0 -6 11 -3 25 2 14 6 25 8 25 2 0 4 -11 4
-25z m180 -342 c51 -29 62 -78 31 -129 -39 -64 -144 -66 -176 -4 -24 46 -19
78 19 116 39 39 80 45 126 17z m1042 -12 c27 -24 33 -36 33 -69 0 -50 -24 -78
-79 -93 -82 -22 -144 48 -112 126 29 69 102 86 158 36z m-812 -191 c0 -5 -2
-10 -4 -10 -3 0 -8 5 -11 10 -3 6 -1 10 4 10 6 0 11 -4 11 -10z"/>
<path d="M8360 6821 c-86 -28 -178 -99 -222 -171 -29 -49 -50 -131 -50 -201 0
-59 5 -82 31 -133 40 -81 107 -148 189 -188 61 -30 75 -33 157 -32 76 0 99 5
146 27 115 55 193 155 219 279 22 109 -14 221 -99 311 -75 80 -144 110 -256
114 -49 1 -101 -1 -115 -6z m144 -256 c18 -9 40 -28 49 -44 68 -115 -67 -228
-168 -140 -29 26 -35 38 -35 71 0 52 22 91 62 111 41 21 52 21 92 2z"/>
<path d="M874 6753 c24 -110 27 -143 17 -195 -18 -83 -53 -149 -120 -221 l-62
-66 3 -235 c3 -220 4 -236 24 -263 11 -15 32 -33 45 -40 17 -8 238 -12 804
-15 739 -3 782 -2 808 15 16 10 37 32 47 50 19 31 20 54 20 499 0 435 -1 468
-17 476 -10 4 -166 8 -348 8 l-330 -1 -3 -172 c-2 -165 -3 -173 -22 -173 -19
0 -20 7 -20 180 l0 180 -426 0 -426 0 6 -27z m187 -100 c6 -16 16 -50 24 -78
12 -48 13 -49 23 -24 6 15 15 45 21 67 13 47 31 65 63 60 19 -2 27 -16 47 -78
13 -41 27 -68 29 -60 3 8 13 42 22 75 17 64 43 83 70 50 14 -17 5 -56 -42
-182 -18 -49 -22 -53 -52 -53 -32 0 -35 3 -56 60 -12 33 -26 57 -30 55 -5 -3
-16 -28 -25 -56 -18 -54 -31 -65 -69 -55 -19 5 -29 23 -60 114 -20 60 -36 114
-36 121 0 6 14 11 30 11 24 0 33 -6 41 -27z m517 18 c23 -14 10 -46 -21 -49
l-27 -3 0 -95 0 -94 -30 0 -30 0 0 95 0 95 -40 0 c-32 0 -40 4 -40 18 0 10 5
23 12 30 14 14 156 16 176 3z m712 -441 l0 -30 -190 0 -190 0 0 -49 0 -48 53
-7 c28 -3 114 -6 190 -6 l137 0 0 -25 0 -25 -187 -2 -188 -3 -3 -52 -3 -53
180 0 c98 0 186 -3 195 -6 10 -4 16 -18 16 -35 l0 -29 -717 2 -718 3 0 30 0
30 198 3 198 2 -3 53 -3 52 -202 3 -203 2 0 25 0 25 203 2 202 3 0 50 0 50
-199 5 -199 5 -4 28 -4 27 721 0 720 0 0 -30z"/>
<path d="M1322 6150 l3 -51 263 -2 c144 -1 263 1 265 6 1 4 1 28 -1 52 l-4 45
-265 0 -264 0 3 -50z"/>
<path d="M1320 5985 l0 -55 264 0 c146 0 267 3 269 8 2 4 2 28 -1 55 l-4 47
-264 0 -264 0 0 -55z"/>
<path d="M7806 6625 c-3 -8 -1 -15 4 -15 6 0 10 7 10 15 0 8 -2 15 -4 15 -2 0
-6 -7 -10 -15z"/>
<path d="M8290 5826 c0 -2 7 -6 15 -10 8 -3 15 -1 15 4 0 6 -7 10 -15 10 -8 0
-15 -2 -15 -4z"/>
<path d="M825 5415 c-47 -17 -88 -61 -104 -114 -7 -24 -11 -130 -11 -294 l0
-255 29 -55 c17 -33 25 -60 21 -67 -5 -7 -6 -19 -3 -26 3 -7 1 -19 -3 -26 -14
-23 -17 -50 -18 -160 -1 -60 -5 -108 -9 -108 -5 0 -5 -5 -1 -12 4 -7 9 -51 10
-98 1 -47 7 -112 14 -146 11 -57 11 -64 -12 -105 -23 -44 -23 -46 -26 -439 -3
-440 -3 -446 64 -511 l35 -34 142 -5 142 -5 3 -80 c5 -163 9 -164 194 -43 79
52 161 105 183 118 52 31 85 60 85 77 0 7 -21 27 -47 43 l-47 30 -55 -32 c-31
-17 -85 -51 -121 -75 l-65 -43 -5 62 -5 63 -157 5 c-86 3 -161 10 -166 15 -6
6 -11 87 -13 180 l-4 170 95 2 c84 1 96 4 112 23 23 29 23 52 -1 81 -18 23
-25 24 -110 21 l-91 -3 0 159 c0 142 2 162 19 183 l19 24 658 3 c469 2 666 -1
685 -9 43 -17 50 -50 47 -209 l-3 -145 -70 -3 c-97 -3 -111 -8 -125 -42 -10
-25 -10 -34 4 -55 16 -24 21 -25 112 -25 l96 0 -4 -164 c-4 -217 6 -206 -184
-206 -78 0 -149 -3 -158 -6 -12 -5 -16 -20 -16 -60 0 -30 -2 -54 -5 -54 -2 0
-54 32 -114 71 l-110 71 -46 -32 c-28 -19 -45 -39 -45 -51 0 -14 39 -45 148
-115 81 -53 165 -108 187 -123 51 -35 66 -40 88 -29 14 7 17 24 17 108 l0 99
144 3 145 3 34 33 c19 18 39 50 46 71 7 26 11 166 11 430 0 378 -1 394 -21
442 -12 27 -25 49 -30 49 -12 0 -12 77 0 84 13 9 7 496 -7 530 -11 25 -10 32
7 50 47 50 51 79 51 365 0 167 -4 280 -11 298 -15 40 -48 73 -94 94 -38 18
-81 19 -765 18 -597 0 -732 -2 -765 -14z m1476 -124 c18 -21 19 -42 19 -269 0
-214 -2 -248 -17 -264 -15 -17 -51 -18 -719 -18 l-703 0 -15 22 c-13 19 -16
60 -16 244 0 139 4 233 11 254 22 61 5 60 747 57 l674 -2 19 -24z"/>
<path d="M1033 5201 c-63 -29 -98 -88 -98 -166 0 -51 5 -69 28 -104 48 -72
134 -98 216 -65 51 20 59 41 27 73 -22 22 -28 23 -51 13 -68 -31 -125 6 -125
81 0 69 59 114 116 88 39 -17 74 9 74 55 0 20 -60 44 -107 44 -21 0 -57 -9
-80 -19z"/>
<path d="M1505 5206 c-162 -72 -129 -319 47 -351 67 -13 150 32 185 98 20 39
20 125 0 163 -44 85 -151 126 -232 90z m126 -105 c65 -65 10 -179 -76 -157
-59 15 -78 114 -30 161 33 33 70 32 106 -4z"/>
<path d="M1956 5204 c-24 -23 -24 -315 0 -335 10 -8 52 -14 111 -16 102 -4
143 9 143 45 0 33 -22 42 -97 42 -63 0 -73 2 -73 18 0 35 18 47 67 47 l48 0 0
35 0 35 -55 0 c-55 0 -55 0 -58 33 l-3 32 69 0 c56 0 72 4 87 20 17 19 17 21
0 40 -16 18 -31 20 -121 20 -80 0 -106 -3 -118 -16z"/>
<path d="M7954 5410 c-37 -15 -64 -59 -64 -106 0 -34 6 -48 32 -74 29 -29 36
-32 77 -27 59 7 91 43 91 104 0 72 -74 129 -136 103z m55 -88 c12 -23 -1 -45
-25 -40 -23 4 -31 37 -12 49 19 13 26 11 37 -9z"/>
<path d="M7664 5400 c-33 -13 -54 -50 -54 -93 0 -31 7 -46 34 -73 55 -55 125
-43 161 26 24 46 19 78 -19 116 -35 35 -75 43 -122 24z m70 -79 c10 -16 -6
-42 -23 -39 -9 2 -17 13 -19 26 -3 16 2 22 17 22 11 0 22 -4 25 -9z"/>
<path d="M9220 5379 c-220 -67 -595 -177 -710 -209 -302 -84 -816 -235 -863
-252 -15 -6 -39 -25 -54 -42 -25 -30 -26 -33 -19 -136 13 -202 27 -219 184
-219 59 0 111 0 116 0 6 -1 -24 -35 -65 -76 -62 -62 -79 -75 -107 -75 -47 0
-87 -24 -106 -64 -14 -30 -16 -99 -16 -628 l0 -594 23 -44 c16 -33 34 -51 67
-68 l45 -22 755 2 c741 3 756 3 790 24 19 11 46 40 60 65 l25 44 0 590 c0 540
-1 593 -17 622 -27 49 -64 73 -114 73 -24 0 -44 2 -44 5 0 3 20 25 44 48 62
59 166 177 166 188 0 5 -290 9 -692 10 -628 0 -689 2 -653 15 22 9 218 64 435
124 217 59 445 124 505 143 175 55 359 107 377 107 9 0 19 4 22 9 8 13 -41
150 -69 193 -26 40 -31 58 -16 58 5 0 21 4 35 10 l25 9 -18 53 c-10 29 -24 54
-32 55 -8 1 -43 -7 -79 -18z m-26 -211 c33 -29 63 -54 66 -56 10 -7 -24 -20
-100 -37 l-78 -18 -61 53 c-34 29 -61 57 -61 61 0 5 26 16 58 24 31 9 62 18
67 20 30 10 53 0 109 -47z m-320 -101 l68 -63 -80 -19 -81 -18 -66 58 c-36 32
-63 61 -59 64 7 7 113 38 134 39 8 1 46 -27 84 -61z m-308 -84 c35 -31 61 -60
57 -63 -5 -4 -43 -14 -85 -24 l-77 -17 -66 52 c-36 29 -64 57 -62 63 3 10 114
43 150 45 10 1 47 -25 83 -56z m-324 -90 c38 -31 65 -59 61 -63 -14 -13 -144
-41 -156 -34 -36 21 -127 108 -120 115 8 8 107 36 132 38 8 1 45 -24 83 -56z
m-314 -89 c37 -32 68 -58 70 -59 1 -1 -55 -21 -125 -44 -71 -23 -130 -38 -135
-33 -10 10 -38 108 -38 133 0 12 20 22 73 37 39 11 76 21 80 21 4 1 38 -24 75
-55z m360 -293 c-1 -5 -43 -41 -92 -80 l-89 -71 -98 0 c-55 0 -99 3 -99 6 0 7
20 23 123 102 l69 52 95 0 c53 0 93 -4 91 -9z m402 -22 c-19 -17 -64 -53 -99
-80 l-64 -49 -110 0 c-129 0 -129 -2 2 97 l84 63 111 0 111 -1 -35 -30z m433
17 c-4 -8 -47 -44 -94 -80 l-86 -66 -102 0 c-60 0 -101 4 -99 9 2 6 43 42 93
80 l90 71 103 0 c86 0 102 -2 95 -14z m-923 -541 l0 -175 255 0 255 0 0 170
c0 147 2 171 16 177 28 11 34 -19 34 -179 l0 -158 103 -1 c82 -2 257 -6 325
-9 6 0 12 -9 12 -20 0 -20 -7 -20 -741 -20 -588 0 -740 3 -736 13 3 9 55 12
207 14 154 1 205 5 211 15 5 7 9 88 9 181 l0 167 25 0 25 0 0 -175z m-406 23
c22 -42 26 -41 42 5 7 21 18 33 32 35 29 4 28 -6 -8 -84 -22 -49 -34 -65 -47
-62 -20 4 -86 124 -77 139 11 19 38 3 58 -33z m250 28 c86 -36 43 -136 -59
-136 l-35 0 0 75 0 75 30 0 c17 0 46 -6 64 -14z m291 -22 c14 -44 28 -45 38
-1 7 30 14 37 32 37 37 0 38 -14 6 -85 -26 -57 -34 -66 -53 -63 -16 2 -31 19
-50 58 -34 69 -36 93 -5 88 14 -2 25 -13 32 -34z m283 18 c2 -7 -5 -16 -17
-19 -17 -4 -21 -13 -21 -42 0 -38 -14 -61 -37 -61 -9 0 -13 16 -13 50 0 43 -3
50 -20 50 -22 0 -28 25 -7 34 24 10 110 1 115 -12z m-148 -88 c0 -16 -16 -19
-25 -4 -8 13 4 32 16 25 5 -4 9 -13 9 -21z m730 -334 l0 -30 -225 0 -225 0 0
-50 0 -50 223 0 222 0 0 -25 c0 -14 -3 -26 -7 -26 -25 -4 -108 -7 -263 -8
l-175 -1 0 -50 0 -50 213 0 c116 0 217 -4 223 -8 7 -4 8 -15 3 -30 l-8 -22
-728 2 -728 3 0 25 c0 15 6 25 15 26 8 1 99 2 203 2 l187 2 0 53 0 52 -206 -3
-205 -4 3 29 3 28 205 5 c187 5 205 7 204 23 0 9 -1 31 -2 47 l-2 30 -205 0
-205 0 0 30 0 30 740 0 740 0 0 -30z m-66 -466 c46 -7 62 -26 30 -38 -9 -3
-329 -6 -713 -6 -529 0 -700 3 -709 12 -38 38 -36 38 667 38 373 0 699 -3 725
-6z"/>
<path d="M7990 3960 c0 -41 14 -52 38 -28 18 18 14 46 -7 58 -29 15 -31 13
-31 -30z"/>
<path d="M8190 3510 l0 -50 250 0 250 0 0 50 0 50 -250 0 -250 0 0 -50z"/>
<path d="M8195 3397 c-8 -20 -2 -103 8 -99 4 1 115 2 247 2 l240 0 0 50 0 50
-214 0 c-117 0 -227 3 -245 6 -22 5 -32 2 -36 -9z"/>
<path d="M1159 3816 c-18 -8 -25 -21 -27 -48 -3 -31 1 -40 24 -54 23 -16 29
-16 52 -3 40 23 50 45 32 76 -19 33 -50 45 -81 29z"/>
<path d="M1331 3804 c-26 -33 -27 -58 -1 -84 19 -19 33 -20 418 -20 374 0 400
1 415 18 23 25 21 68 -3 92 -19 19 -33 20 -414 20 l-395 0 -20 -26z"/>
<path d="M986 3801 c-24 -26 -17 -60 16 -84 23 -17 32 -19 52 -9 30 14 43 54
27 88 -14 31 -69 34 -95 5z"/>
<path d="M1331 3544 c-26 -33 -26 -49 -1 -74 19 -19 35 -20 263 -22 324 -3
308 -4 329 22 23 29 23 55 -2 80 -19 19 -33 20 -294 20 l-275 0 -20 -26z"/>
<path d="M990 3298 c-25 -27 -26 -60 -2 -81 58 -53 137 28 82 83 -26 26 -54
25 -80 -2z"/>
<path d="M1152 3304 c-29 -20 -31 -79 -3 -94 32 -17 69 -12 85 12 22 31 20 45
-9 73 -28 29 -42 31 -73 9z"/>
<path d="M1331 3294 c-22 -28 -26 -51 -13 -70 21 -31 53 -34 442 -34 l391 0
24 25 c30 29 31 45 4 79 l-20 26 -404 0 -404 0 -20 -26z"/>
<path d="M3338 2773 c7 -3 16 -2 19 1 4 3 -2 6 -13 5 -11 0 -14 -3 -6 -6z"/>
<path d="M6573 2773 c9 -2 23 -2 30 0 6 3 -1 5 -18 5 -16 0 -22 -2 -12 -5z"/>
<path d="M1133 2571 c-42 -20 -93 -81 -93 -113 0 -16 -10 -18 -83 -18 -103 0
-169 -28 -213 -92 l-29 -41 0 -697 0 -696 28 -43 c20 -29 44 -50 80 -67 l52
-24 715 0 c672 0 717 2 755 19 53 24 90 63 110 114 14 37 15 119 13 712 l-3
670 -28 48 c-40 67 -101 97 -201 97 l-74 0 -11 33 c-13 39 -64 91 -104 106
-18 7 -176 11 -450 11 -392 0 -425 -2 -464 -19z m-109 -259 c15 -2 16 -5 6
-17 -7 -8 -19 -15 -26 -15 -8 0 -15 -8 -15 -17 -1 -16 -2 -16 -6 0 -5 19 -22
20 -68 2 l-20 -8 20 17 c19 15 19 16 -10 6 -29 -11 -29 -11 -11 9 22 25 49 29
130 23z m1234 2 c38 -11 24 -22 -34 -30 -56 -7 -83 3 -70 25 8 12 67 14 104 5z
m-1311 -58 c-18 -14 -18 -14 0 -19 10 -3 -3 -5 -29 -6 -37 -1 -48 3 -48 14 0
12 4 13 19 4 14 -10 23 -9 42 4 28 20 42 22 16 3z m1331 -152 l52 -7 0 -564 0
-565 -29 -29 -29 -29 -672 0 c-724 0 -713 -1 -737 52 -7 16 -12 207 -14 576
-4 483 -2 554 11 562 17 11 1331 14 1418 4z"/>
<path d="M1004 1969 l-29 -30 -3 -426 c-3 -452 -2 -471 44 -491 16 -8 198 -11
583 -11 534 -1 560 0 583 18 l23 19 3 388 c2 352 1 386 -13 374 -9 -7 -13 -20
-10 -28 6 -18 -5 -112 -14 -112 -3 0 -5 20 -3 45 3 27 0 45 -6 45 -6 0 -10
-10 -10 -22 1 -13 1 -36 -1 -53 l-2 -30 -20 38 c-11 22 -23 36 -26 33 -3 -3
-1 -11 4 -18 23 -30 46 -135 45 -204 -3 -127 -54 -236 -154 -329 -60 -56 -182
-125 -206 -117 -7 2 -12 0 -12 -5 0 -11 -1 -11 -102 -16 -43 -2 -78 1 -78 5 0
5 -8 5 -17 0 -19 -9 -48 -8 -123 4 -25 4 -51 6 -58 5 -8 -1 -20 3 -28 10 -9 8
-14 8 -14 1 0 -6 -16 -2 -35 9 -19 12 -35 25 -35 30 0 5 -3 8 -7 7 -20 -4 -66
25 -116 74 -132 127 -171 347 -95 523 17 39 34 72 38 75 4 3 13 16 20 29 11
21 10 23 -4 18 -9 -4 -16 -2 -16 2 0 5 6 12 13 14 9 4 9 6 0 6 -6 1 -15 -3
-18 -9 -3 -5 -14 -10 -23 -10 -14 0 -14 2 -3 9 19 12 6 41 -19 41 -11 0 -20 5
-20 11 0 5 5 7 10 4 6 -3 16 -3 23 2 6 4 17 8 22 9 6 0 16 2 23 2 7 1 10 6 7
12 -3 6 1 7 9 4 10 -4 16 -1 16 9 0 24 20 31 34 12 11 -15 14 -15 27 -3 8 8
22 17 32 21 16 6 17 9 3 22 -11 11 -39 15 -113 15 -98 0 -100 0 -129 -31z
m189 14 c-7 -2 -21 -2 -30 0 -10 3 -4 5 12 5 17 0 24 -2 18 -5z m-67 -36 c4
-4 -7 -7 -24 -7 -18 0 -32 5 -32 10 0 11 45 9 56 -3z m1064 -306 c0 -6 -4 -13
-10 -16 -5 -3 -10 1 -10 9 0 9 5 16 10 16 6 0 10 -4 10 -9z"/>
<path d="M1283 1993 c9 -2 25 -2 35 0 9 3 1 5 -18 5 -19 0 -27 -2 -17 -5z"/>
<path d="M1356 1991 c-4 -5 3 -7 14 -4 23 6 26 13 6 13 -8 0 -17 -4 -20 -9z"/>
<path d="M1448 1993 c7 -3 16 -2 19 1 4 3 -2 6 -13 5 -11 0 -14 -3 -6 -6z"/>
<path d="M1518 1993 c12 -2 30 -2 40 0 9 3 -1 5 -23 4 -22 0 -30 -2 -17 -4z"/>
<path d="M1808 1993 c6 -2 18 -2 25 0 6 3 1 5 -13 5 -14 0 -19 -2 -12 -5z"/>
<path d="M1993 1989 c7 -4 28 -4 47 1 33 7 33 8 -12 7 -26 -1 -42 -5 -35 -8z"/>
<path d="M2075 1983 c-5 -14 -4 -15 6 -6 15 14 67 6 91 -14 9 -8 19 -27 21
-42 4 -23 4 -22 6 7 1 27 -5 36 -31 52 -41 25 -84 26 -93 3z"/>
<path d="M1612 1974 c10 -10 20 -15 24 -12 3 4 -5 12 -18 18 -22 12 -22 12 -6
-6z"/>
<path d="M1280 1971 c0 -12 26 -21 58 -20 l27 1 -30 13 c-35 16 -55 19 -55 6z"/>
<path d="M1390 1960 c-11 -7 -7 -10 18 -10 17 0 32 5 32 10 0 13 -30 13 -50 0z"/>
<path d="M1475 1960 c-3 -5 1 -10 9 -10 9 0 16 5 16 10 0 6 -4 10 -9 10 -6 0
-13 -4 -16 -10z"/>
<path d="M1728 1953 c6 -2 18 -2 25 0 6 3 1 5 -13 5 -14 0 -19 -2 -12 -5z"/>
<path d="M1790 1956 c0 -9 40 -13 46 -5 3 5 -6 9 -20 9 -14 0 -26 -2 -26 -4z"/>
<path d="M1978 1953 c7 -3 16 -2 19 1 4 3 -2 6 -13 5 -11 0 -14 -3 -6 -6z"/>
<path d="M1242 1943 c-6 -2 -10 -8 -7 -13 2 -4 -13 -10 -35 -14 -37 -6 -39 -8
-28 -26 11 -17 14 -18 18 -4 3 8 9 16 13 16 22 0 45 12 55 29 12 19 8 22 -16
12z"/>
<path d="M1995 1920 c-3 -6 1 -7 9 -4 18 7 21 14 7 14 -6 0 -13 -4 -16 -10z"/>
<path d="M2171 1884 c0 -11 3 -14 6 -6 3 7 2 16 -1 19 -3 4 -6 -2 -5 -13z"/>
<path d="M2201 1883 c-1 -6 -4 -20 -7 -30 -5 -17 -5 -17 6 0 6 10 9 23 6 30
-3 9 -5 9 -5 0z"/>
<path d="M1258 1818 c-18 -24 -56 -71 -85 -106 l-53 -62 0 -134 0 -133 36 -39
c19 -21 55 -68 78 -104 45 -70 70 -83 92 -52 16 23 37 23 82 -1 19 -10 36 -16
39 -13 3 3 14 -3 24 -15 13 -15 19 -17 23 -7 3 7 4 3 2 -9 -2 -15 0 -20 10
-16 7 2 10 12 8 21 -5 14 -3 13 10 -2 14 -17 14 -20 -2 -33 -15 -13 -15 -13 6
-3 12 6 22 17 22 24 0 10 17 14 58 14 75 1 121 13 178 49 74 45 88 70 94 171
l5 87 42 3 c36 3 44 7 49 28 11 41 -1 54 -51 54 l-45 0 0 83 c0 61 -4 89 -17
107 -29 43 -76 79 -122 95 -57 19 -193 20 -256 1 -60 -18 -134 -69 -163 -110
-45 -64 -102 -120 -112 -110 -7 7 15 43 65 109 l75 99 -24 23 c-14 13 -27 23
-30 23 -2 0 -19 -19 -38 -42z m427 -69 c64 -18 85 -43 85 -106 0 -35 -4 -54
-12 -55 -7 0 -17 -2 -23 -3 -5 -2 -16 -3 -22 -4 -7 0 -13 -9 -13 -18 0 -35
-38 -82 -74 -92 -62 -17 -107 6 -133 67 -24 57 6 107 68 115 19 2 -3 4 -48 2
-46 -1 -83 1 -83 5 0 4 12 12 27 19 21 10 28 9 34 -1 6 -9 9 -9 9 -1 0 6 10
14 23 16 12 2 0 5 -27 6 -34 1 -56 -4 -70 -16 -18 -16 -18 -15 2 14 37 53 162
78 257 52z m-255 -119 c0 -5 -2 -10 -4 -10 -3 0 -8 5 -11 10 -3 6 -1 10 4 10
6 0 11 -4 11 -10z m40 0 c0 -5 -2 -10 -4 -10 -3 0 -8 5 -11 10 -3 6 -1 10 4
10 6 0 11 -4 11 -10z"/>
<path d="M1720 1690 c-9 -6 -10 -10 -3 -10 6 0 15 5 18 10 8 12 4 12 -15 0z"/>
<path d="M2127 1734 c9 -15 19 -22 21 -15 2 6 -3 18 -11 26 -24 24 -29 18 -10
-11z"/>
<path d="M1585 1120 c3 -5 8 -10 11 -10 2 0 4 5 4 10 0 6 -5 10 -11 10 -5 0
-7 -4 -4 -10z"/>
<path d="M1530 1060 c0 -5 5 -10 10 -10 6 0 10 5 10 10 0 6 -4 10 -10 10 -5 0
-10 -4 -10 -10z"/>
<path d="M3001 2480 c-54 -13 -81 -32 -106 -75 -39 -67 -41 -112 -10 -187 5
-13 2 -18 -10 -18 -12 0 -15 -7 -13 -30 l3 -30 175 -1 c96 -1 181 -1 188 0 7
0 12 15 12 36 0 31 -3 35 -25 35 -29 0 -29 0 -10 36 62 119 -66 266 -204 234z
m94 -125 c28 -27 30 -38 14 -84 -20 -57 -75 -68 -121 -24 -35 33 -35 63 -2
102 33 39 74 41 109 6z"/>
<path d="M4473 2455 c-68 -42 -101 -137 -72 -212 8 -21 7 -30 -4 -38 -7 -5
-16 -22 -19 -37 l-5 -26 111 -7 c61 -4 147 -5 191 -3 l80 3 1 38 c1 33 -2 37
-22 37 -28 0 -29 3 -8 35 22 34 15 126 -12 162 -38 50 -70 67 -137 71 -53 2
-68 -1 -104 -23z m146 -96 c44 -41 8 -139 -52 -139 -34 0 -77 45 -77 81 0 65
81 102 129 58z"/>
<path d="M3320 2458 c-11 -4 -20 -17 -20 -28 0 -11 38 -96 84 -188 l84 -168
-33 -18 c-39 -21 -55 -53 -62 -122 -7 -65 10 -116 49 -149 l30 -25 -67 -153
c-37 -83 -85 -189 -106 -234 l-38 -83 -71 0 -71 0 3 -52 3 -53 42 -3 41 -3
-16 -30 c-9 -16 -22 -27 -28 -25 -6 2 -36 7 -67 11 -148 19 -256 -115 -199
-247 16 -35 32 -53 69 -75 l48 -28 810 0 c910 0 848 -5 902 76 50 76 39 177
-26 232 -33 27 -117 50 -157 42 -13 -3 -35 -7 -47 -10 -18 -3 -27 1 -35 21 -7
14 -12 26 -12 28 0 2 23 6 50 10 l50 7 0 49 0 49 -77 3 -77 3 -28 55 c-15 30
-41 87 -57 125 -16 39 -52 117 -80 175 l-50 105 35 28 c78 65 66 227 -21 278
-33 20 -33 21 -20 52 7 18 25 53 38 79 70 129 117 226 117 240 0 39 -13 40
-500 36 -259 -1 -480 -6 -490 -10z m800 -123 c0 -3 -32 -64 -71 -135 l-71
-130 -173 0 -173 0 -40 68 c-40 68 -102 187 -102 197 0 3 142 5 315 5 173 0
315 -2 315 -5z m-3 -401 c3 -9 2 -24 -4 -33 -9 -14 -45 -16 -289 -19 -153 -1
-289 0 -300 3 -27 6 -38 33 -23 51 9 11 69 14 311 14 267 0 299 -2 305 -16z
m-417 -227 c0 8 10 11 30 7 21 -5 30 -3 30 7 0 8 6 5 15 -7 8 -10 15 -14 15
-7 0 7 7 10 15 7 9 -4 15 0 15 7 1 10 4 9 11 -3 7 -12 21 -16 50 -15 26 1 43
-4 49 -13 8 -12 10 -11 10 5 0 11 4 16 8 10 4 -5 18 -10 32 -9 14 0 33 -5 43
-10 18 -11 114 -194 182 -346 21 -47 56 -123 78 -170 86 -184 107 -231 107
-241 0 -5 -225 -9 -585 -9 -322 0 -585 4 -585 9 0 4 37 86 83 182 46 96 111
235 146 309 105 229 136 285 160 286 11 1 21 -5 21 -12 0 -7 5 -16 12 -20 7
-5 8 -3 4 5 -5 7 0 21 9 32 17 18 19 18 31 1 8 -10 13 -12 14 -5z m-600 -687
c8 -16 4 -32 -20 -80 -17 -33 -37 -60 -44 -60 -28 0 -47 13 -61 40 -28 55 13
120 76 120 28 0 41 -5 49 -20z m1508 0 c42 -39 42 -92 1 -122 -37 -28 -61 -12
-88 58 -16 43 -19 60 -10 70 17 21 72 17 97 -6z"/>
<path d="M3660 1694 c0 -8 5 -12 10 -9 6 3 10 10 10 16 0 5 -4 9 -10 9 -5 0
-10 -7 -10 -16z"/>
<path d="M3736 1354 c-34 -33 -8 -84 43 -84 34 0 51 17 51 52 0 44 -61 65 -94
32z"/>
<path d="M3603 1199 c-35 -13 -47 -46 -28 -75 21 -32 40 -39 69 -26 60 27 20
125 -41 101z"/>
<path d="M3935 1155 c-30 -30 -31 -54 -4 -89 40 -50 109 -20 109 48 0 62 -61
86 -105 41z"/>
<path d="M5220 2444 c-19 -8 -48 -27 -63 -42 -57 -55 -58 -63 -54 -803 5 -737
3 -721 63 -768 66 -52 67 -52 965 -49 811 3 835 4 873 23 22 11 53 37 70 58
l31 39 3 701 c2 521 -1 710 -9 732 -16 41 -56 83 -101 106 -36 18 -70 19 -890
19 -740 -1 -858 -3 -888 -16z m1727 -128 c28 -24 28 -26 28 -138 l0 -113 -840
-3 c-462 -1 -850 0 -862 3 -19 4 -22 14 -28 98 -8 100 4 144 42 166 12 7 295
10 825 11 l807 0 28 -24z m-1189 -512 c75 -31 133 -112 131 -181 -2 -31 -3
-33 -6 -10 l-4 28 -35 -22 c-67 -41 -113 -59 -154 -59 l-40 0 0 -86 c0 -84 0
-85 -22 -79 -39 12 -95 53 -124 91 -36 47 -45 134 -20 199 41 106 170 163 274
119z m799 -2 c41 -22 227 -158 243 -177 6 -8 9 -22 6 -32 -6 -19 -234 -186
-262 -191 -9 -2 -35 6 -59 18 -41 21 -43 23 -49 82 -3 34 -6 108 -6 165 0 97
2 106 25 128 29 29 58 31 102 7z m-690 -229 c-3 -10 -5 -4 -5 12 0 17 2 24 5
18 2 -7 2 -21 0 -30z m-3 -56 c7 -6 6 -7 -4 -4 -8 2 -16 12 -17 23 -2 13 -1
15 4 4 3 -8 11 -19 17 -23z m-141 16 c-7 -2 -21 -2 -30 0 -10 3 -4 5 12 5 17
0 24 -2 18 -5z m62 -23 c-3 -5 -12 -10 -18 -10 -7 0 -6 4 3 10 19 12 23 12 15
0z m55 -45 c-8 -9 -25 -22 -40 -30 -24 -12 -26 -12 -27 8 -2 23 13 47 30 47 6
0 3 -6 -8 -13 -10 -8 -15 -19 -11 -25 9 -14 46 16 46 37 0 11 3 12 12 3 8 -8
8 -15 -2 -27z m-125 -34 c-6 -5 -21 -12 -35 -15 l-25 -7 25 15 c28 17 50 21
35 7z m30 -21 c-28 -12 -37 -12 -30 0 3 6 16 10 28 9 21 0 21 -1 2 -9z m1226
-242 c5 -7 8 -55 8 -106 0 -86 -2 -96 -24 -118 l-24 -24 -825 0 -825 0 -20 26
c-19 24 -21 37 -17 127 2 54 8 102 14 106 5 3 392 5 858 4 663 -2 849 -6 855
-15z"/>
<path d="M5338 2249 c-13 -7 -18 -22 -18 -52 1 -74 8 -77 167 -77 l140 0 7 40
c8 54 -1 87 -27 94 -37 10 -251 6 -269 -5z"/>
<path d="M5850 2251 l-115 -6 0 -58 c0 -40 5 -61 15 -68 22 -14 276 -5 295 11
20 17 20 94 -1 114 -9 9 -29 15 -47 14 -18 -1 -84 -4 -147 -7z"/>
<path d="M6168 2249 c-27 -15 -25 -114 1 -129 25 -13 241 -13 275 0 24 9 26
15 26 64 0 42 -4 57 -17 65 -25 13 -264 13 -285 0z"/>
<path d="M6579 2248 c-17 -7 -20 -15 -17 -65 l3 -58 149 -3 c175 -3 180 -1
174 70 -3 27 -8 52 -12 56 -10 9 -270 9 -297 0z"/>
<path d="M5331 1116 c-7 -8 -11 -36 -9 -63 l3 -48 145 -3 c127 -2 146 -1 157
15 16 21 17 85 1 101 -19 19 -282 17 -297 -2z"/>
<path d="M5729 1108 c-6 -14 -7 -38 -1 -63 l8 -40 154 0 155 0 9 37 c6 26 6
46 -2 63 l-12 25 -150 0 c-146 0 -151 -1 -161 -22z"/>
<path d="M6159 1109 c-17 -17 -20 -28 -14 -57 4 -21 10 -40 14 -45 4 -4 75 -6
157 -5 l149 3 3 54 c2 37 -1 57 -10 62 -7 5 -73 9 -145 9 -122 0 -135 -2 -154
-21z"/>
<path d="M6571 1116 c-7 -8 -11 -36 -9 -63 l3 -48 154 -3 c117 -2 156 1 163
10 12 20 10 92 -4 106 -19 19 -292 17 -307 -2z"/>
<path d="M7635 2368 c-48 -17 -94 -56 -115 -98 -19 -38 -20 -60 -20 -685 0
-638 0 -646 21 -691 23 -49 64 -85 118 -103 24 -8 252 -11 791 -11 828 0 820
-1 871 58 56 64 54 30 54 752 l0 666 -28 43 c-18 27 -44 50 -70 62 -40 18 -76
19 -817 18 -513 0 -785 -4 -805 -11z m214 -173 l-76 -75 -67 0 c-36 0 -66 4
-66 8 0 5 29 38 65 75 l65 67 77 0 78 0 -76 -75z m411 68 c0 -5 -33 -38 -72
-75 l-73 -68 -73 0 c-86 0 -85 2 14 93 l63 57 71 0 c38 0 70 -3 70 -7z m350
-2 c0 -5 -4 -11 -9 -13 -5 -1 -39 -31 -75 -65 l-66 -63 -78 0 -77 0 76 75 76
75 77 0 c42 0 76 -4 76 -9z m276 -66 l-79 -75 -81 0 -81 1 80 74 80 75 80 -1
80 0 -79 -74z m322 63 c21 -21 13 -52 -26 -95 l-37 -43 -75 0 -75 1 78 74 c78
75 109 89 135 63z m20 -710 l-3 -233 -792 -3 -793 -2 0 235 0 235 795 0 795 0
-2 -232z"/>
<path d="M7986 1664 c-13 -12 -16 -39 -16 -123 0 -94 3 -110 19 -125 18 -17
20 -17 41 4 19 19 22 31 18 81 -2 33 -1 59 3 59 3 0 18 -18 33 -40 14 -22 30
-40 35 -40 5 0 19 16 31 35 12 19 26 35 30 35 5 0 10 -28 12 -61 3 -69 23 -94
52 -70 13 11 16 35 16 118 0 156 -21 178 -97 96 l-43 -47 -48 47 c-52 51 -63
55 -86 31z"/>
<path d="M8373 1664 c-20 -10 -40 -32 -53 -58 -24 -51 -25 -64 -4 -116 42
-105 197 -111 249 -10 60 116 -73 243 -192 184z m117 -74 c51 -51 -1 -137 -70
-115 -45 14 -59 112 -18 128 29 12 69 6 88 -13z"/>
<path d="M8630 1661 c-5 -11 -10 -63 -10 -116 0 -53 5 -105 10 -116 12 -21 45
-25 57 -6 8 13 6 210 -3 240 -7 23 -41 22 -54 -2z"/>
<path d="M8765 1655 c-47 -46 -25 -102 50 -131 78 -29 39 -66 -42 -39 -16 5
-23 2 -28 -16 -18 -57 110 -84 160 -34 48 47 30 102 -45 134 -68 29 -69 56 -1
46 40 -5 49 -4 55 11 20 53 -102 77 -149 29z"/>
<path d="M2862 2039 l3 -51 80 -1 80 0 3 51 3 52 -86 0 -86 0 3 -51z"/>
<path d="M3102 2038 l3 -53 67 -3 c64 -3 68 -2 73 21 4 14 5 38 3 53 -3 29 -4
29 -76 32 l-73 3 3 -53z"/>
<path d="M4374 2076 c-3 -8 -4 -31 -2 -52 l3 -39 75 0 75 0 3 53 3 52 -76 0
c-55 0 -77 -4 -81 -14z"/>
<path d="M4604 2076 c-3 -7 -4 -31 -2 -52 l3 -39 75 0 75 0 0 50 0 50 -73 3
c-56 2 -74 0 -78 -12z"/>
<path d="M2862 1878 l3 -53 187 -3 188 -2 6 24 c3 13 4 37 2 52 l-3 29 -193 3
-193 2 3 -52z"/>
<path d="M4374 1916 c-3 -8 -4 -31 -2 -52 l3 -39 190 0 190 0 0 50 0 50 -188
3 c-154 2 -188 0 -193 -12z"/>
<path d="M2912 1463 l-53 -4 3 -51 3 -52 180 2 c99 1 183 6 188 11 4 4 7 28 5
52 l-3 44 -135 1 c-74 0 -159 -1 -188 -3z"/>
<path d="M4515 1461 l-140 -6 0 -45 0 -45 193 -3 192 -2 0 50 c0 33 -4 50 -12
51 -7 0 -31 1 -53 3 -22 1 -103 0 -180 -3z"/>
<path d="M2862 1238 l3 -53 80 0 80 0 3 53 3 52 -86 0 -86 0 3 -52z"/>
<path d="M4600 1240 c0 -58 9 -63 101 -58 l54 3 3 53 3 52 -80 0 -81 0 0 -50z"/>
</g>
</svg>
